<?xml version="1.0" encoding="utf-8"?><!DOCTYPE svg PUBLIC "-//W3C//DTD SVG 20010904//EN" "http://www.w3.org/TR/2001/REC-SVG-20010904/DTD/svg10.dtd"><svg viewBox="0 0 2000 1001.44" xmlns="http://www.w3.org/2000/svg" xmlns:xlink="http://www.w3.org/1999/xlink"><style>:root>svg{display:none}:root>svg:target{display:block}</style><svg fill="none" viewBox="0 0 12 8" id="arrow-down" xmlns="http://www.w3.org/2000/svg"><path d="M1.41.297 6 4.877l4.59-4.58L12 1.707l-6 6-6-6L1.41.297Z" fill="#0C0C0C"/></svg><svg fill="none" viewBox="0 0 15 14" id="burger-close" xmlns="http://www.w3.org/2000/svg"><path d="M14.5 1.41 13.09 0 7.5 5.59 1.91 0 .5 1.41 6.09 7 .5 12.59 1.91 14 7.5 8.41 13.09 14l1.41-1.41L8.91 7l5.59-5.59Z" fill="#0C0C0C"/></svg><svg fill="none" viewBox="0 0 19 12" id="burger-logo" xmlns="http://www.w3.org/2000/svg"><path d="M.5 12h18v-2H.5v2Zm0-5h18V5H.5v2Zm0-7v2h18V0H.5Z" fill="#0C0C0C"/></svg><svg viewBox="0 0 24 24" id="home" xmlns="http://www.w3.org/2000/svg"><path d="M12 2.1 1 12h3v9h7v-6h2v6h7v-9h3L12 2.1zm0 2.691 6 5.4V19h-3v-6H9v6H6v-8.809l6-5.4z"/></svg><svg version="1.0" viewBox="0 0 11793 5905" id="logo" xmlns="http://www.w3.org/2000/svg"><g fill="currentColor"><path d="M4346.5 26.1c-16.8 2.1-32.3 7.7-45.2 16.2-4.3 2.9-131.2 111.5-282.1 241.5-213.2 183.8-275.4 237.9-279.7 243.4-7 8.9-11.9 19-14.6 29.8-1.8 7.1-2.1 10.4-1.6 20 .6 14.2 1.4 16.4 17.7 53 285 639.4 777 1927.1 1410.2 3691 156.8 436.8 334.2 937.1 469.5 1324 15.7 44.8 28.8 81.8 29.2 82.3 1.1 1.2 197.2-160.3 333.6-274.7 159.8-134 300.9-256 330.5-285.6 14.4-14.4 20.3-23.4 25.6-38.7 4.5-13.1 6-26 4.5-38.3-1.4-10.8-9.9-37.3-69.7-215.5-285.7-851.1-572.9-1655-888.3-2486-11.1-29.1-20-53.2-19.9-53.6.7-1.7 286 157.5 438.3 244.6 637.5 364.5 1100.8 672.5 1452 965.4 150.7 125.7 286.1 254.7 390 371.6 147.1 165.6 249.1 320.9 310 472 59.5 147.6 77.7 289 54.9 426-17.7 106.5-64.9 216.9-134.3 314.1-12.1 16.9-8.7 14.8-33.1 20.1-11.5 2.5-14.3 2.7-36 2.7-18.4.1-25.5-.3-32.7-1.7-35.4-6.8-68.3-22.6-101.3-48.7-12.3-9.7-45-42.2-56.9-56.5-74.9-90.2-145.8-232.5-224.8-451.5-32.2-89.2-63.5-183.7-118.3-357-62.1-196.2-80.8-254.3-104.4-324.5-76.5-227.4-139.3-376.3-204.9-486-27.2-45.5-64.8-96.4-84.8-114.9-40.7-37.7-109.3-50.3-167.7-30.7-21.7 7.2-26.9 10.4-101.7 62.6-110.7 77.2-286.3 203.4-449.3 323-22.1 16.2-29.1 22.9-31.6 30.1-2.4 7.2-2.1 16.8.8 23.1 3.7 7.8 6 10.5 16.7 19.4 68.8 56.8 135.9 195.6 219.2 453.4 25.4 78.4 42.3 133.4 90.7 295 79.6 265.7 117.9 386 162.3 510 108.4 302.9 213.4 497.4 329.8 611 137.2 133.9 288.3 151.9 460.9 55 28.9-16.3 76.2-42.1 157.5-86 230.9-124.7 339.1-187.2 463-267.3 381.6-246.7 610-496.6 700-765.7 37.3-111.4 50.5-225 39.9-341.5-1.8-20-4.6-42.3-7.9-62.9-1.4-8.5-2.4-15.6-2.2-15.8.2-.2 7.1 11 15.2 24.9 307.8 524.6 617.6 1004.9 822.4 1274.8 82.4 108.7 141.8 178.9 198.7 235 31.6 31.2 46.1 43.3 59.9 50.2 21.1 10.7 52.6 13.7 76.5 7.5 26.2-6.8 232.8-98.1 388-171.5 128.9-60.9 328.4-159.9 348.5-173 9.7-6.3 22.1-19.2 27.2-28.3 3.1-5.5 11.5-29.3 33.1-93.9 233.6-696.3 487-1423.3 676.5-1940 161.3-439.8 295.6-779.3 375.3-948.5l10.9-23 .3-14.7.3-14.8-3.1-6.4c-8.8-17.9-30.6-32.6-56-37.8-12.5-2.6-32.7-2.1-44 1.2-19 5.4-226.5 92.4-407 170.5-115.2 49.9-267.4 116.7-278.5 122.3-29.7 14.9-54.8 36.3-71.4 61.1-9.3 13.7-14.4 27-47.2 124.1-17.7 52.5-32.5 95.9-32.9 96.3-.4.4-17.3-6.5-37.6-15.4-205.8-90.2-471-199.2-736.4-302.6-42.3-16.5-170.5-65.8-178.4-68.7-1.1-.4-1.5-1-1-1.5.5-.4 11.9-6.1 25.4-12.6 59.2-28.5 164.3-81.9 216-109.7 61.2-33 125.3-69.8 139.1-79.9 17.5-12.9 27.3-30.3 27.3-48.4-.1-14-4.8-25.7-15.8-38.7-68.4-81.6-117.3-143.5-190.7-241.3-248.1-330.6-640.4-903.9-1103.7-1613-38.8-59.3-127.1-195.1-141.7-217.9-3.9-5.9-7.9-11.2-9-11.7-1.1-.4-34.6-7-74.5-14.5l-72.5-13.7-282.4 141.7c-168.2 84.4-285.4 143.8-289.8 146.8-21.4 14.8-34.3 36.6-34.3 57.8 0 9.6 1.8 17 7.4 30.7 17.9 43.7 31.2 97.7 37 150.3 3.7 33.4 4.1 41.1 4.1 90 0 48.8-.4 57.7-4.1 95-26.7 269.1-167.5 596.6-408.6 950.3-50.9 74.7-127.9 181-129.8 179.1-.5-.5-256.2-408.1-568.3-905.7-399.6-637.4-569-906.7-573.1-911.3-18.4-20.5-49.3-32.7-83.1-32.6-21 0-42.1 5.1-57.3 13.9-7 4.1-576.6 384.8-584.7 390.9-26.1 19.5-45.4 42.3-58 68.7-14.2 29.6-18.1 56.1-13.4 90.7 2.1 15.5 2.4 21.2 2.4 50-.1 34.4-1 46.2-6 77.5-33.5 208.9-187.7 504.7-449.3 862-25.3 34.6-82.9 111.2-84.1 111.9-.5.3-5.3-10.5-10.6-24.2-165.6-420.1-321.7-804.4-474-1166.7-81.9-194.9-185.3-435.4-191.8-446.4-4.6-7.8-16.4-20-25.2-26-14.2-9.8-31.1-15.9-50-18.1-10.3-1.1-16.1-1.1-26 .1zm2010.8 1578.6c187.4 296.3 340.5 538.8 340.4 539-.2.2-12.9-6.9-28.3-15.8-232.2-134-506.9-282-803.4-433.1-37.1-18.9-71.4-37-76.2-40.1-35.9-24-59.5-56.5-67.4-92.7-2.8-12.9-2.6-37.3.5-50 2.8-11.2 6.8-21.8 12-31.5 7.3-13.5 84.4-130.8 132.1-201 57.5-84.5 147.6-213.6 149-213.4.3 0 153.8 242.4 341.3 538.6zm2617.6 96.5c194.7 297.5 353.7 540.8 353.4 540.8-.3 0-21.1-7.2-46.2-16.1-312.1-110.2-647.7-221.7-974.2-323.8-47.9-15-58.6-19.3-73.4-29.9-19-13.6-32.2-31.2-36.4-48.4-1.6-6.6-1.4-20.3.4-27.1 2.5-9.5 6.5-16.3 30.8-50.9 126.1-180.2 279.3-412.1 372.7-564.5 15.3-24.9 15.5-25.2 17.2-23 1 1.2 161 245.5 355.7 542.9zM7470.1 2229c10.8 9 23.9 17.4 39.4 25 16.4 8.1 25.1 11.2 63.5 22.6 290.9 86.9 638.1 202.8 983 328.2 112.7 41 243.9 89.7 245.3 91.1.4.4-3.2 2.5-8 4.6-107.6 46.6-216.8 105.5-293.3 158.1-51.2 35.1-88.4 65.8-124.6 102.5-59.7 60.8-92 118.6-101 180.9-2.1 14.4-2.1 42.4.1 56.5 5.3 35.3 15.6 61.3 58.6 149.4l14.9 30.5-5.7-6.5c-64.6-71.9-150.6-158.7-231.8-234-236.8-219.2-553.8-458.4-915.7-690.9-8.1-5.2-14.7-9.8-14.5-10.2.2-.7 281.6-213.8 282.3-213.8.2 0 3.6 2.7 7.5 6zM9130 2821.5c327.7 127.9 725.5 292.6 999.5 413.7 23.7 10.5 44.7 19.7 46.7 20.6l3.7 1.5 318.7-157.1c175.3-86.5 318.9-157 319-156.9.2.1-138.9 410.2-309 911.2-170.1 501.1-309.7 912.3-310.2 913.9l-1 2.9-5.6-7.9c-28.5-40.6-166-248.4-234.3-353.9-402.2-621.7-685.7-1124.4-812.3-1440-20.7-51.8-41.8-111.1-52.2-147-2.2-7.7-4.3-14.8-4.6-15.8-.5-1.6-.1-1.6 4.8.4 2.9 1.1 19.5 7.6 36.8 14.4zM2018.5 53.6c-3.3.8-9.5 3.4-13.7 5.7-5.9 3.2-75.4 60.2-289 237.2-154.7 128.1-284.5 236.1-288.4 240-26.5 26.3-40.3 62.9-36.5 97 .9 7.6 54.5 216.5 220.2 857.3 120.5 466.1 218.9 847.5 218.7 847.7-.2.2-253.6-454.9-563.1-1011.4S703.4 314.5 702.6 313.5c-1.2-1.7-3.4-.4-31.2 18.5C457.3 477.9 260.2 632 65.8 805.6c-16.8 15.1-30.1 30.1-38.9 44l-3.9 6.1V916l27.4 46.8C656.4 1998 1379.3 3336.2 2132.3 4817c97.8 192.4 159.2 314.4 283 562l127.2 254.5 6.5 6.5c19.2 19.3 52.6 23.8 77.9 10.5 5.2-2.8 76.5-62.5 297.7-249.6 160-135.3 294.2-249.3 298.2-253.2 17.7-17.4 28.5-37.8 32.2-61 2.5-15.2 1.2-25.5-10.3-80.7-110.4-529.8-231.3-1065-360.6-1596-10.8-44.6-59-240.4-61.7-250.5-.2-1.1 1.1 1.4 3.1 5.5s9.5 19.9 16.8 35c155.4 324.4 433.6 804.7 810 1398.5 216.4 341.5 472.6 731.4 723.5 1101.5 55.4 81.6 87.5 128.5 91.1 132.9 8.6 10.5 25.8 20.9 42.1 25.3 7.3 2 10.8 2.3 25 2.2 15.1 0 17.3-.3 25.5-2.8 11.6-3.5 25-10.6 32.2-17 3.2-2.8 52.6-47.6 109.8-99.6 144.1-130.9 286.2-259.8 355-321.9 31.9-28.8 62.2-56.5 67.3-61.5 25.9-25.3 39.3-53.2 41.8-87.1 1.3-17.9.4-21.8-22.2-104C4893.3 4259.9 4541 3193.8 4097.7 2002 3877.1 1408.9 3623 759 3402 222c-40.8-99.1-47.3-114.5-50.8-119.8-9.1-13.8-26.3-22.4-45.7-22.6-5.5 0-12.5.5-15.5 1.3-14.8 3.6.3-8.7-318.5 259-164.4 138.1-302.2 254.5-306.1 258.5-15.9 16.6-22 39.9-15.8 60.6.9 3 11.6 30 23.9 60 182.3 445.6 400.6 1002.9 594.9 1518.7 45.9 122 46.6 123.7 46.2 124-.2.2-1.2-1.1-2.3-2.9-1.1-1.8-16.4-26.9-34-55.8C2771 1470.4 2396.4 793.9 2198 352c-43.7-97.4-80.7-188.3-102.4-252-3.1-9.1-7.1-18.9-8.9-21.9-6.8-11.2-19.8-20.4-34.3-24.1-9.2-2.4-24.9-2.6-33.9-.4z"/></g></svg></svg>