<?xml version="1.0" standalone="no"?>
<!DOCTYPE svg PUBLIC "-//W3C//DTD SVG 20010904//EN" "http://www.w3.org/TR/2001/REC-SVG-20010904/DTD/svg10.dtd">
<svg version="1.0" xmlns="http://www.w3.org/2000/svg" width="11793.000000pt" height="5905.000000pt"
    viewBox="0 0 11793.000000 5905.000000" preserveAspectRatio="xMidYMid meet">

    <g transform="translate(0.000000,5905.000000) scale(0.100000,-0.100000)" fill="currentColor" stroke="none">
        <path d="M43465 58789 c-168 -21 -323 -77 -452 -162 -43 -29 -1312 -1115
-2821 -2415 -2132 -1838 -2754 -2379 -2797 -2434 -70 -89 -119 -190 -146 -298
-18 -71 -21 -104 -16 -200 6 -142 14 -164 177 -530 2850 -6394 7770 -19271
14102 -36910 1568 -4368 3342 -9371 4695 -13240 157 -448 288 -818 292 -823
11 -12 1972 1603 3336 2747 1598 1340 3009 2560 3305 2856 144 144 203 234
256 387 45 131 60 260 45 383 -14 108 -99 373 -697 2155 -2857 8511 -5729
16550 -8883 24860 -111 291 -200 532 -199 536 7 17 2860 -1575 4383 -2446
6375 -3645 11008 -6725 14520 -9654 1507 -1257 2861 -2547 3900 -3716 1471
-1656 2491 -3209 3100 -4720 595 -1476 777 -2890 549 -4260 -177 -1065 -649
-2169 -1343 -3141 -121 -169 -87 -148 -331 -201 -115 -25 -143 -27 -360 -27
-184 -1 -255 3 -327 17 -354 68 -683 226 -1013 487 -123 97 -450 422 -569 565
-749 902 -1458 2325 -2248 4515 -322 892 -635 1837 -1183 3570 -621 1962 -808
2543 -1044 3245 -765 2274 -1393 3763 -2049 4860 -272 455 -648 964 -848 1149
-407 377 -1093 503 -1677 307 -217 -72 -269 -104 -1017 -626 -1107 -772 -2863
-2034 -4493 -3230 -221 -162 -291 -229 -316 -301 -24 -72 -21 -168 8 -231 37
-78 60 -105 167 -194 688 -568 1359 -1956 2192 -4534 254 -784 423 -1334 907
-2950 796 -2657 1179 -3860 1623 -5100 1084 -3029 2134 -4974 3298 -6110 1372
-1339 2883 -1519 4609 -550 289 163 762 421 1575 860 2309 1247 3391 1872
4630 2673 3816 2467 6100 4966 7000 7657 373 1114 505 2250 399 3415 -18 200
-46 423 -79 629 -14 85 -24 156 -22 158 2 2 71 -110 152 -249 3078 -5246 6176
-10049 8224 -12748 824 -1087 1418 -1789 1987 -2350 316 -312 461 -433 599
-502 211 -107 526 -137 765 -75 262 68 2328 981 3880 1715 1289 609 3284 1599
3485 1730 97 63 221 192 272 283 31 55 115 293 331 939 2336 6963 4870 14233
6765 19400 1613 4398 2956 7793 3753 9485 l109 230 3 147 3 148 -31 64 c-88
179 -306 326 -560 378 -125 26 -327 21 -440 -12 -190 -54 -2265 -924 -4070
-1705 -1152 -499 -2674 -1167 -2785 -1223 -297 -149 -548 -363 -714 -611 -93
-137 -144 -270 -472 -1241 -177 -525 -325 -959 -329 -963 -4 -4 -173 65 -376
154 -2058 902 -4710 1992 -7364 3026 -423 165 -1705 658 -1784 687 -11 4 -15
10 -10 15 5 4 119 61 254 126 592 285 1643 819 2160 1097 612 330 1253 698
1391 799 175 129 273 303 273 484 -1 140 -48 257 -158 387 -684 816 -1173
1435 -1907 2413 -2481 3306 -6404 9039 -11037 16130 -388 593 -1271 1951
-1417 2179 -39 59 -79 112 -90 117 -11 4 -346 70 -745 145 l-725 137 -2824
-1417 c-1682 -844 -2854 -1438 -2898 -1468 -214 -148 -343 -366 -343 -578 0
-96 18 -170 74 -307 179 -437 312 -977 370 -1503 37 -334 41 -411 41 -900 0
-488 -4 -577 -41 -950 -267 -2691 -1675 -5966 -4086 -9503 -509 -747 -1279
-1810 -1298 -1791 -5 5 -2562 4081 -5683 9057 -3996 6374 -5690 9067 -5731
9113 -184 205 -493 327 -831 326 -210 0 -421 -51 -573 -139 -70 -41 -5766
-3848 -5847 -3909 -261 -195 -454 -423 -580 -687 -142 -296 -181 -561 -134
-907 21 -155 24 -212 24 -500 -1 -344 -10 -462 -60 -775 -335 -2089 -1877
-5047 -4493 -8620 -253 -346 -829 -1112 -841 -1119 -5 -3 -53 105 -106 242
-1656 4201 -3217 8044 -4740 11667 -819 1949 -1853 4354 -1918 4464 -46 78
-164 200 -252 260 -142 98 -311 159 -500 181 -103 11 -161 11 -260 -1z m20108
-15786 c1874 -2963 3405 -5388 3404 -5390 -2 -2 -129 69 -283 158 -2322 1340
-5069 2820 -8034 4331 -371 189 -714 370 -762 401 -359 240 -595 565 -674 927
-28 129 -26 373 5 500 28 112 68 218 120 315 73 135 844 1308 1321 2010 575
845 1476 2136 1490 2134 3 0 1538 -2424 3413 -5386z m26176 -965 c1947 -2975
3537 -5408 3534 -5408 -3 0 -211 72 -462 161 -3121 1102 -6477 2217 -9742
3238 -479 150 -586 193 -734 299 -190 136 -322 312 -364 484 -16 66 -14 203 4
271 25 95 65 163 308 509 1261 1802 2793 4121 3727 5645 153 249 155 252 172
230 10 -12 1610 -2455 3557 -5429z m-15048 -5278 c108 -90 239 -174 394 -250
164 -81 251 -112 635 -226 2909 -869 6381 -2028 9830 -3282 1127 -410 2439
-897 2453 -911 4 -4 -32 -25 -80 -46 -1076 -466 -2168 -1055 -2933 -1581 -512
-351 -884 -658 -1246 -1025 -597 -608 -920 -1186 -1010 -1809 -21 -144 -21
-424 1 -565 53 -353 156 -613 586 -1494 l149 -305 -57 65 c-646 719 -1506
1587 -2318 2340 -2368 2192 -5538 4584 -9157 6909 -81 52 -147 98 -145 102 2
7 2816 2138 2823 2138 2 0 36 -27 75 -60z m16599 -5925 c3277 -1279 7255
-2926 9995 -4137 237 -105 447 -197 467 -206 l37 -15 3187 1571 c1753 865
3189 1570 3190 1569 2 -1 -1389 -4102 -3090 -9112 -1701 -5011 -3097 -9123
-3102 -9139 l-10 -29 -56 79 c-285 406 -1660 2484 -2343 3539 -4022 6217
-6857 11244 -8123 14400 -207 518 -418 1111 -522 1470 -22 77 -43 148 -46 158
-5 16 -1 16 48 -4 29 -11 195 -76 368 -144z" />
        <path d="M20185 58514 c-33 -8 -95 -34 -137 -57 -59 -32 -754 -602 -2890
-2372 -1547 -1281 -2845 -2361 -2884 -2400 -265 -263 -403 -629 -365 -970 9
-76 545 -2165 2202 -8573 1205 -4661 2189 -8475 2187 -8477 -2 -2 -2536 4549
-5631 10114 -3095 5565 -5633 10126 -5641 10136 -12 17 -34 4 -312 -185 -2141
-1459 -4112 -3000 -6056 -4736 -168 -151 -301 -301 -389 -440 l-39 -61 0 -302
0 -301 274 -468 c6060 -10352 13289 -23734 20819 -38542 978 -1924 1592 -3144
2830 -5620 l1272 -2545 65 -65 c192 -193 526 -238 779 -105 52 28 765 625
2977 2496 1600 1353 2942 2493 2982 2532 177 174 285 378 322 610 25 152 12
255 -103 807 -1104 5298 -2313 10650 -3606 15960 -108 446 -590 2404 -617
2505 -2 11 11 -14 31 -55 20 -41 95 -199 168 -350 1554 -3244 4336 -8047 8100
-13985 2164 -3415 4726 -7314 7235 -11015 554 -816 875 -1285 911 -1329 86
-105 258 -209 421 -253 73 -20 108 -23 250 -22 151 0 173 3 255 28 116 35 250
106 322 170 32 28 526 476 1098 996 1441 1309 2862 2598 3550 3219 319 288
622 565 673 615 259 253 393 532 418 871 13 179 4 218 -222 1040 -2501 9066
-6024 19727 -10457 31645 -2206 5931 -4747 12430 -6957 17800 -408 991 -473
1145 -508 1198 -91 138 -263 224 -457 226 -55 0 -125 -5 -155 -13 -148 -36 3
87 -3185 -2590 -1644 -1381 -3022 -2545 -3061 -2585 -159 -166 -220 -399 -158
-606 9 -30 116 -300 239 -600 1823 -4456 4006 -10029 5949 -15187 459 -1220
466 -1237 462 -1240 -2 -2 -12 11 -23 29 -11 18 -164 269 -340 558 -5073 8326
-8819 15091 -10803 19510 -437 974 -807 1883 -1024 2520 -31 91 -71 189 -89
219 -68 112 -198 204 -343 241 -92 24 -249 26 -339 4z" />
    </g>
</svg>